{
    "asset" : {
        "generator" : "Khronos glTF Blender I/O v1.7.33",
        "version" : "2.0"
    },
    "scene" : 0,
    "scenes" : [
        {
            "name" : "Scene",
            "nodes" : [
                1
            ]
        }
    ],
    "nodes" : [
        {
            "mesh" : 0,
            "name" : "mesh_id34",
            "rotation" : [
                0.01921158842742443,
                0.158115416765213,
                0.2530212700366974,
                0.9542593359947205
            ],
            "scale" : [
                0.5,
                0.5,
                0.5
            ],
            "translation" : [
                0.031280048191547394,
                -0.004324798006564379,
                -0.2622280418872833
            ]
        },
        {
            "children" : [
                0
            ],
            "name" : "root",
            "scale" : [
                80,
                80,
                80
            ]
        }
    ],
    "animations" : [
        {
            "channels" : [
                {
                    "sampler" : 0,
                    "target" : {
                        "node" : 0,
                        "path" : "rotation"
                    }
                }
            ],
            "name" : "mesh_id34Action",
            "samplers" : [
                {
                    "input" : 5,
                    "interpolation" : "LINEAR",
                    "output" : 6
                }
            ]
        }
    ],
    "materials" : [
        {
            "doubleSided" : true,
            "name" : "75",
            "pbrMetallicRoughness" : {}
        }
    ],
    "meshes" : [
        {
            "name" : "mesh_id34",
            "primitives" : [
                {
                    "attributes" : {
                        "POSITION" : 0,
                        "NORMAL" : 1,
                        "TEXCOORD_0" : 2,
                        "COLOR_0" : 3
                    },
                    "indices" : 4,
                    "material" : 0
                }
            ]
        }
    ],
    "accessors" : [
        {
            "bufferView" : 0,
            "componentType" : 5126,
            "count" : 186,
            "max" : [
                0.5,
                0.5,
                0.07262394577264786
            ],
            "min" : [
                -0.5,
                -0.5,
                -0.07262394577264786
            ],
            "type" : "VEC3"
        },
        {
            "bufferView" : 1,
            "componentType" : 5126,
            "count" : 186,
            "type" : "VEC3"
        },
        {
            "bufferView" : 2,
            "componentType" : 5126,
            "count" : 186,
            "type" : "VEC2"
        },
        {
            "bufferView" : 3,
            "componentType" : 5123,
            "count" : 186,
            "normalized" : true,
            "type" : "VEC4"
        },
        {
            "bufferView" : 4,
            "componentType" : 5123,
            "count" : 228,
            "type" : "SCALAR"
        },
        {
            "bufferView" : 5,
            "componentType" : 5126,
            "count" : 171,
            "max" : [
                7.083333333333333
            ],
            "min" : [
                0
            ],
            "type" : "SCALAR"
        },
        {
            "bufferView" : 6,
            "componentType" : 5126,
            "count" : 171,
            "type" : "VEC4"
        }
    ],
    "bufferViews" : [
        {
            "buffer" : 0,
            "byteLength" : 2232,
            "byteOffset" : 0
        },
        {
            "buffer" : 0,
            "byteLength" : 2232,
            "byteOffset" : 2232
        },
        {
            "buffer" : 0,
            "byteLength" : 1488,
            "byteOffset" : 4464
        },
        {
            "buffer" : 0,
            "byteLength" : 1488,
            "byteOffset" : 5952
        },
        {
            "buffer" : 0,
            "byteLength" : 456,
            "byteOffset" : 7440
        },
        {
            "buffer" : 0,
            "byteLength" : 684,
            "byteOffset" : 7896
        },
        {
            "buffer" : 0,
            "byteLength" : 2736,
            "byteOffset" : 8580
        }
    ],
    "buffers" : [
        {
            "byteLength" : 11316,
            "uri" : "data:application/octet-stream;base64,"
        }
    ]
}
