{
    "asset" : {
        "generator" : "Khronos glTF Blender I/O v1.7.33",
        "version" : "2.0"
    },
    "scene" : 0,
    "scenes" : [
        {
            "name" : "Scene",
            "nodes" : [
                1
            ]
        }
    ],
    "nodes" : [
        {
            "mesh" : 0,
            "name" : "mesh_id34",
            "rotation" : [
                -0.00018343093688599765,
                -0.0003196141333319247,
                -0.0026141402777284384,
                0.9999964833259583
            ],
            "scale" : [
                47.52374267578125,
                55.078277587890625,
                76.62405395507812
            ]
        },
        {
            "children" : [
                0
            ],
            "name" : "root"
        }
    ],
    "materials" : [
        {
            "doubleSided" : true,
            "name" : "75",
            "pbrMetallicRoughness" : {}
        }
    ],
    "meshes" : [
        {
            "name" : "mesh_id34",
            "primitives" : [
                {
                    "attributes" : {
                        "POSITION" : 0,
                        "NORMAL" : 1,
                        "TEXCOORD_0" : 2,
                        "COLOR_0" : 3
                    },
                    "indices" : 4,
                    "material" : 0
                }
            ]
        }
    ],
    "accessors" : [
        {
            "bufferView" : 0,
            "componentType" : 5126,
            "count" : 186,
            "max" : [
                0.5,
                0.5,
                0.07262394577264786
            ],
            "min" : [
                -0.5,
                -0.5,
                -0.07262394577264786
            ],
            "type" : "VEC3"
        },
        {
            "bufferView" : 1,
            "componentType" : 5126,
            "count" : 186,
            "type" : "VEC3"
        },
        {
            "bufferView" : 2,
            "componentType" : 5126,
            "count" : 186,
            "type" : "VEC2"
        },
        {
            "bufferView" : 3,
            "componentType" : 5123,
            "count" : 186,
            "normalized" : true,
            "type" : "VEC4"
        },
        {
            "bufferView" : 4,
            "componentType" : 5123,
            "count" : 228,
            "type" : "SCALAR"
        }
    ],
    "bufferViews" : [
        {
            "buffer" : 0,
            "byteLength" : 2232,
            "byteOffset" : 0
        },
        {
            "buffer" : 0,
            "byteLength" : 2232,
            "byteOffset" : 2232
        },
        {
            "buffer" : 0,
            "byteLength" : 1488,
            "byteOffset" : 4464
        },
        {
            "buffer" : 0,
            "byteLength" : 1488,
            "byteOffset" : 5952
        },
        {
            "buffer" : 0,
            "byteLength" : 456,
            "byteOffset" : 7440
        }
    ],
    "buffers" : [
        {
            "byteLength" : 7896,
            "uri" : "data:application/octet-stream;base64,"
        }
    ]
}
